<svg width="22" height="22" viewBox="0 0 22 22" fill="none" xmlns="http://www.w3.org/2000/svg">
<path d="M11.0003 5.50008C12.0087 5.50008 12.8337 6.32508 12.8337 7.33341C12.8337 8.34175 12.0087 9.16675 11.0003 9.16675C9.99199 9.16675 9.16699 8.34175 9.16699 7.33341C9.16699 6.32508 9.99199 5.50008 11.0003 5.50008ZM11.0003 14.6667C13.4753 14.6667 16.317 15.8492 16.5003 16.5001H5.50033C5.71116 15.8401 8.53449 14.6667 11.0003 14.6667ZM11.0003 3.66675C8.97449 3.66675 7.33366 5.30758 7.33366 7.33341C7.33366 9.35925 8.97449 11.0001 11.0003 11.0001C13.0262 11.0001 14.667 9.35925 14.667 7.33341C14.667 5.30758 13.0262 3.66675 11.0003 3.66675ZM11.0003 12.8334C8.55283 12.8334 3.66699 14.0617 3.66699 16.5001V18.3334H18.3337V16.5001C18.3337 14.0617 13.4478 12.8334 11.0003 12.8334Z" fill="white"/>
</svg>
