<svg width="171" height="24" viewBox="0 0 171 24" fill="none" xmlns="http://www.w3.org/2000/svg">
<g clip-path="url(#clip0_300_6269)">
<path d="M9.6505 13.8124C9.6505 14.175 9.95073 14.4712 10.318 14.4712H15.9798C16.3466 14.4712 16.6469 14.175 16.6469 13.8124V6.25029V0.658587C16.6469 0.29629 16.3466 -0.00024128 15.9798 -0.00024128H0.667397C0.300295 -0.00024128 0 0.29629 0 0.658587V6.25029C0 6.61258 0.300295 6.90895 0.667397 6.90895H9.6505V13.8124Z" fill="#7EC92D"/>
<path d="M35.2809 -0.000169754H19.9693C19.6019 -0.000169754 19.3017 0.296362 19.3017 0.658657V6.25036V17.0923H10.3179C9.95062 17.0923 9.65039 17.3889 9.65039 17.7512V23.3413C9.65039 23.7038 9.95062 24 10.3179 24H25.6305C25.9977 24 26.298 23.7038 26.298 23.3413V23.3407V17.7512V6.90902H35.2809C35.6476 6.90902 35.9478 6.61266 35.9478 6.25036V0.658657C35.9478 0.296362 35.6476 -0.000169754 35.2809 -0.000169754Z" fill="#7EC92D"/>
<path d="M32.4498 4.46411C31.886 4.46411 31.4273 4.0115 31.4273 3.45527C31.4273 2.89854 31.886 2.44558 32.4498 2.44558C33.0135 2.44558 33.4722 2.89854 33.4722 3.45527C33.4722 4.0115 33.0135 4.46411 32.4498 4.46411ZM13.1147 21.5549C12.5507 21.5549 12.0923 21.1018 12.0923 20.5451C12.0923 19.9887 12.5507 19.5359 13.1147 19.5359C13.6781 19.5359 14.1371 19.9887 14.1371 20.5451C14.1371 21.1018 13.6781 21.5549 13.1147 21.5549ZM32.4498 1.65741C31.6172 1.65741 30.9157 2.21027 30.699 2.9643H22.7997C22.525 2.9643 22.3024 3.1838 22.3024 3.45527V20.0548H14.8647C14.6481 19.3007 13.9471 18.7477 13.1147 18.7477C12.1089 18.7477 11.2935 19.5524 11.2935 20.5451C11.2935 21.5384 12.1089 22.3433 13.1147 22.3433C13.9467 22.3433 14.6479 21.7904 14.8647 21.0362H22.7997C23.0742 21.0362 23.2966 20.8169 23.2966 20.5457V3.9459H30.6992C30.9159 4.69975 31.6172 5.25262 32.4498 5.25262C33.4552 5.25262 34.2704 4.44797 34.2704 3.45527C34.2704 2.4619 33.4552 1.65741 32.4498 1.65741Z" fill="white"/>
<path d="M13.1493 12.0232C12.5852 12.0232 12.1267 11.5704 12.1267 11.014C12.1267 10.4576 12.5852 10.0048 13.1493 10.0048C13.7127 10.0048 14.1715 10.4576 14.1715 11.014C14.1715 11.5704 13.7127 12.0232 13.1493 12.0232ZM3.52808 4.46403C2.96382 4.46403 2.50502 4.01141 2.50502 3.45518C2.50502 2.89845 2.96382 2.4455 3.52808 2.4455C4.09154 2.4455 4.55046 2.89845 4.55046 3.45518C4.55046 4.01141 4.09154 4.46403 3.52808 4.46403ZM13.6464 9.28604V3.45518C13.6464 3.18371 13.4238 2.96422 13.1493 2.96422H5.27808C5.06149 2.21019 4.36036 1.65733 3.52808 1.65733C2.52219 1.65733 1.70654 2.46181 1.70654 3.45518C1.70654 4.44788 2.52219 5.25253 3.52808 5.25253C4.36036 5.25253 5.06149 4.69967 5.27808 3.94581H12.6519V9.28598C11.8882 9.49977 11.3279 10.1915 11.3279 11.014C11.3279 12.0067 12.1435 12.8113 13.1493 12.8113C14.1539 12.8113 14.9698 12.0067 14.9698 11.014C14.9698 10.1915 14.4094 9.4999 13.6464 9.28604Z" fill="white"/>
<path d="M57.8058 5.16306H52.2613V20.4263H50.2684V5.16306H44.6982V3.27085H57.8058V5.16306Z" fill="#231F20"/>
<path d="M59.736 13.2615H67.7844C67.7586 10.7891 65.9702 9.35113 63.8241 9.35113C61.5246 9.35113 60.0171 10.9152 59.736 13.2615ZM69.675 14.977H59.736C60.0426 17.3736 61.5757 18.8874 63.8752 18.8874C65.5869 18.8874 67.0945 18.0548 67.861 16.7683L69.4452 17.6765C68.3465 19.4929 66.2002 20.6787 63.8752 20.6787C60.1704 20.6787 57.7686 17.7521 57.7686 14.1192C57.7686 10.4863 60.2213 7.55983 63.8752 7.55983C66.6856 7.55983 69.2917 9.27537 69.675 13.0344C69.7518 13.6399 69.7518 14.2958 69.675 14.977Z" fill="#231F20"/>
<path d="M84.2648 17.6765C83.0384 19.4929 80.9687 20.6787 78.6437 20.6787C74.9389 20.6787 72.2305 17.7521 72.2305 14.094C72.2305 10.4359 74.9389 7.50937 78.6437 7.50937C80.9687 7.50937 83.0384 8.69516 84.2648 10.5116L82.6806 11.445C81.7608 10.0827 80.2788 9.3006 78.6692 9.3006C76.063 9.3006 74.1466 11.3946 74.1466 14.094C74.1466 16.7934 76.063 18.8874 78.6692 18.8874C80.2788 18.8874 81.7608 18.0802 82.6806 16.743L84.2648 17.6765Z" fill="#231F20"/>
<path d="M98.4714 12.9838V20.4263H96.5808V13.3118C96.5808 10.8395 94.9966 9.30046 93.0292 9.30046C90.7808 9.30046 89.2477 11.2431 89.2477 13.3875V20.4263H87.3569V2.76626H89.2477V9.93119C90.0398 8.5941 91.5985 7.53446 93.4891 7.53446C96.2485 7.53446 98.4714 9.72929 98.4714 12.9838Z" fill="#231F20"/>
<path d="M108.444 20.8301C104.918 20.8301 102.235 19.0388 101.699 16.4655L103.615 15.7844C104.075 17.6259 105.94 18.9379 108.572 18.9379C111.127 18.9379 112.915 17.6512 112.915 15.8348C112.915 13.7913 110.667 13.2615 108.086 12.7317C105.659 12.2019 102.44 11.1927 102.44 7.83735C102.44 4.86045 104.944 2.86732 108.47 2.86732C111.74 2.86732 114.193 4.58292 114.755 7.23189L112.839 7.91304C112.43 6.14699 110.846 4.78476 108.393 4.78476C106.144 4.78476 104.458 5.94515 104.458 7.71125C104.458 9.72943 106.579 10.3602 108.7 10.8396C111.459 11.4702 114.908 12.3028 114.908 15.7086C114.908 18.6856 112.251 20.8301 108.444 20.8301Z" fill="#231F20"/>
<path d="M137.298 12.9081V20.4263H135.407V13.2866C135.407 10.9656 134.079 9.30045 132.162 9.30045C130.272 9.30045 128.918 10.9656 128.918 13.2866V20.4263H127.027V13.2866C127.027 10.9656 125.724 9.30045 123.782 9.30045C121.891 9.30045 120.563 10.9656 120.563 13.2866V20.4263H118.672V7.81198H120.563V9.72929C121.252 8.49311 122.53 7.53446 124.242 7.53446C126.056 7.53446 127.563 8.5941 128.33 10.2087C129.096 8.82116 130.629 7.53446 132.622 7.53446C135.305 7.53446 137.298 9.85544 137.298 12.9081Z" fill="#231F20"/>
<path d="M149.048 15.3806V13.8922L144.832 14.75C143.376 15.0779 142.252 15.7844 142.252 16.9449C142.252 18.1054 143.376 18.9379 144.985 18.9379C147.106 18.9379 149.048 17.4998 149.048 15.3806ZM150.939 12.7317V20.4264H149.048V18.3828C148.256 19.6695 146.519 20.6787 144.551 20.6787C142.2 20.6787 140.361 19.2154 140.361 16.9952C140.361 14.8256 142.149 13.5894 144.474 13.1354L149.022 12.2271C148.818 10.5873 147.719 9.25014 145.854 9.25014C144.372 9.25014 143.018 10.0827 142.277 11.2432L140.744 10.1836C141.792 8.64463 143.708 7.5346 145.726 7.5346C148.792 7.5346 150.939 9.60342 150.939 12.7317Z" fill="#231F20"/>
<path d="M161.117 7.53446V9.40137C158 9.40137 156.57 11.2179 156.57 13.3875V20.4263H154.679V7.81198H156.57V9.85544C157.336 8.54364 158.869 7.53446 161.117 7.53446Z" fill="#231F20"/>
<path d="M167.602 9.52752V16.6924C167.602 18.0042 168.215 18.635 169.493 18.635H171V20.4263H169.39C167.014 20.4263 165.711 19.1396 165.711 16.7681V9.52752H163.258V7.81198H165.711V4.33049L167.602 3.77544V7.81198H171V9.52752H167.602Z" fill="#231F20"/>
</g>
<defs>
<clipPath id="clip0_300_6269">
<rect width="171" height="24" fill="white"/>
</clipPath>
</defs>
</svg>
